<svg height="511pt" viewBox="-31 1 511 511.99901" width="511pt" xmlns="http://www.w3.org/2000/svg"><path d="m445.652344 213.457031c-5.421875-37.234375-14.417969-67.460937-26.46875-97.414062-31.859375 4.519531-62.210938 11.6875-97.601563 25.78125-16.046875 6.390625-31.023437 13.566406-44.863281 21.449219-4.050781-11.5625-9.019531-22.5-14.886719-32.660157-25.363281-43.933593-71.488281-80.183593-133.386719-104.828125-34.957031-13.921875-65.632812-21.25-97.601562-25.785156-12.011719 29.851562-20.976562 59.71875-26.46875 97.414062-9.605469 65.929688-1.273438 124 24.089844 167.933594 31.210937 54.058594 87.105468 86.140625 131.839844 104.199219.289062 14.527344 1.542968 29.5625 3.800781 45.035156 5.421875 37.234375 14.414062 67.464844 26.46875 97.417969 31.859375-4.523438 62.207031-11.691406 97.601562-25.785156 61.898438-24.644532 108.023438-60.894532 133.386719-104.828125 25.363281-43.929688 33.695312-102 24.089844-167.929688zm-391.257813 36.917969c-44.351562-76.820312-15.605469-182.355469-4.199219-216.886719 35.605469 7.347657 141.253907 35.09375 185.707032 112.09375 6.050781 10.476563 10.984375 21.992188 14.765625 34.320313-26.199219 18.773437-46.902344 40.578125-61.285157 64.753906l-5.710937-9.898438 20.3125-75.8125-28.921875-7.75-12.566406 46.890626-49.296875-85.382813-25.925781 14.96875 19.351562 33.527344-46.886719-12.566407-7.75 28.921876 75.808594 20.3125 38.710937 67.050781-46.890624-12.5625-7.746094 28.917969 56.332031 15.097656c-3.351563 13.007812-5.648437 26.746094-6.890625 41.113281-38.128906-16.765625-82.144531-44.195313-106.917969-87.109375zm175.539063 223.394531 62.355468-108 75.808594-20.3125-7.75-28.921875-46.890625 12.566406 49.296875-85.386718-25.929687-14.96875-19.355469 33.523437-12.5625-46.886719-28.921875 7.75 20.3125 75.808594-38.710937 67.050782-12.5625-46.890626-28.921876 7.75 20.3125 75.808594-32.410156 56.136719c-12.402344-45.476563-27.660156-131.734375 10.117188-197.171875 44.355468-76.824219 150.121094-104.691406 185.730468-112.082031 11.441407 34.507812 40.238282 139.875-4.21875 216.875-37.78125 65.4375-120.117187 95.355469-165.699218 107.351562zm0 0"/></svg>